<mxfile host="app.diagrams.net" agent="Mozilla/5.0 (X11; Ubuntu; Linux x86_64; rv:137.0) Gecko/20100101 Firefox/137.0" version="26.2.14" pages="4">
  <diagram name="System" id="FHdq4cUsRqKDRxM8yFPT">
    <mxGraphModel dx="1356" dy="800" grid="1" gridSize="10" guides="1" tooltips="1" connect="1" arrows="1" fold="1" page="1" pageScale="1" pageWidth="1169" pageHeight="827" math="0" shadow="0">
      <root>
        <mxCell id="0" />
        <mxCell id="1" parent="0" />
        <mxCell id="LYUPhCJDKue7-6c1yM8P-1" value="&lt;font style=&quot;font-size: 24px;&quot;&gt;FireController&lt;/font&gt;" style="whiteSpace=wrap;html=1;aspect=fixed;" vertex="1" parent="1">
          <mxGeometry x="40" y="280" width="240" height="240" as="geometry" />
        </mxCell>
        <mxCell id="LYUPhCJDKue7-6c1yM8P-3" value="" style="endArrow=classic;startArrow=classic;html=1;rounded=0;exitX=1;exitY=0.5;exitDx=0;exitDy=0;" edge="1" parent="1" source="LYUPhCJDKue7-6c1yM8P-1" target="LYUPhCJDKue7-6c1yM8P-4">
          <mxGeometry width="50" height="50" relative="1" as="geometry">
            <mxPoint x="560" y="440" as="sourcePoint" />
            <mxPoint x="610" y="390" as="targetPoint" />
          </mxGeometry>
        </mxCell>
        <mxCell id="LYUPhCJDKue7-6c1yM8P-5" value="&lt;div&gt;SIGNAL&lt;/div&gt;&lt;div&gt;Ignite, Spread, BurnComplete;&lt;/div&gt;" style="shape=note;whiteSpace=wrap;html=1;backgroundOutline=1;darkOpacity=0.05;align=left;verticalAlign=top;" vertex="1" parent="1">
          <mxGeometry x="800" y="30" width="280" height="50" as="geometry" />
        </mxCell>
        <mxCell id="LYUPhCJDKue7-6c1yM8P-4" value="&lt;font style=&quot;font-size: 36px;&quot;&gt;Forest&lt;/font&gt;" style="whiteSpace=wrap;html=1;aspect=fixed;" vertex="1" parent="1">
          <mxGeometry x="680" y="180" width="440" height="440" as="geometry" />
        </mxCell>
        <mxCell id="LYUPhCJDKue7-6c1yM8P-6" value="&lt;font style=&quot;font-size: 14px;&quot;&gt;Main &lt;span style=&quot;white-space: pre;&quot;&gt;&#x9;&lt;/span&gt;Ignite, Spread, BurnComplete&lt;/font&gt;" style="text;html=1;align=center;verticalAlign=middle;resizable=0;points=[];autosize=1;strokeColor=none;fillColor=none;" vertex="1" parent="1">
          <mxGeometry x="320" y="368" width="260" height="30" as="geometry" />
        </mxCell>
        <mxCell id="LYUPhCJDKue7-6c1yM8P-7" value="" style="shape=partialRectangle;whiteSpace=wrap;html=1;bottom=1;right=1;left=1;top=0;fillColor=none;routingCenterX=-0.5;rotation=90;" vertex="1" parent="1">
          <mxGeometry x="375" y="365" width="30" height="30" as="geometry" />
        </mxCell>
        <mxCell id="LYUPhCJDKue7-6c1yM8P-9" value="" style="shape=partialRectangle;whiteSpace=wrap;html=1;bottom=1;right=1;left=1;top=0;fillColor=none;routingCenterX=-0.5;rotation=-90;" vertex="1" parent="1">
          <mxGeometry x="550" y="365" width="30" height="30" as="geometry" />
        </mxCell>
      </root>
    </mxGraphModel>
  </diagram>
  <diagram id="ekC1jWH8AATUDqJUWkdr" name="Forest">
    <mxGraphModel dx="1356" dy="800" grid="1" gridSize="10" guides="1" tooltips="1" connect="1" arrows="1" fold="1" page="1" pageScale="1" pageWidth="1169" pageHeight="827" math="0" shadow="0">
      <root>
        <mxCell id="0" />
        <mxCell id="1" parent="0" />
        <UserObject label="&lt;font style=&quot;font-size: 22px;&quot;&gt;Cell&lt;/font&gt;" tags="Fons" id="Ax4CZc8-VXtPTkgMZ9C8-2">
          <mxCell style="verticalAlign=middle;align=center;overflow=width;vsdxID=5;fillColor=#FFFFFF;gradientColor=none;shape=stencil(lZFNDoQgDIVP0z3SuHDt6D1MRGmGAYPMj7cXbIxmFgZ379GvQPsA61l3kwIp5uDdU32pDxrwAVKS1cpTiAqwAawH59Xo3dv27KcukUm93Cfd8OO+MnVIsbArhNh8y6ghe0KrG+xe3OHqBlvk/+GCzAbzH88f6XJTURxpDGQMh3mu/6cXjzh5bFY=);strokeColor=#000000;spacingTop=-1;spacingBottom=-1;spacingLeft=-1;spacingRight=-1;points=[[0,0.5,0]];labelBackgroundColor=none;rounded=0;html=1;whiteSpace=wrap;" vertex="1" parent="1">
            <mxGeometry x="420" y="126" width="164" height="164" as="geometry" />
          </mxCell>
        </UserObject>
        <UserObject label="&lt;font style=&quot;font-family: Arial; color: rgb(0, 0, 0); direction: ltr; letter-spacing: 0px; line-height: 120%; opacity: 1; font-size: 15px;&quot;&gt;FCh&lt;/font&gt;&lt;font style=&quot;font-family: Arial; color: rgb(0, 0, 0); direction: ltr; letter-spacing: 0px; line-height: 120%; opacity: 1; font-size: 15px;&quot;&gt;&lt;br&gt;&lt;/font&gt;" tags="Fons" id="Ax4CZc8-VXtPTkgMZ9C8-4">
          <mxCell style="vsdxID=6;edgeStyle=none;startArrow=blockThin;endArrow=blockThin;startSize=7;endSize=7;strokeColor=#000000;spacingTop=0;spacingBottom=0;spacingLeft=0;spacingRight=0;verticalAlign=middle;html=1;labelBackgroundColor=#FFFFFF;rounded=0;align=center;exitX=0.05263157894736842;exitY=0.11552346570397112;exitDx=0;exitDy=0;exitPerimeter=0;entryX=0;entryY=0.5;entryDx=0;entryDy=0;entryPerimeter=0;" edge="1" parent="1" target="Ax4CZc8-VXtPTkgMZ9C8-2">
            <mxGeometry relative="1" as="geometry">
              <mxPoint x="-94" y="-12" as="offset" />
              <Array as="points" />
              <mxPoint x="40" y="208" as="sourcePoint" />
            </mxGeometry>
          </mxCell>
        </UserObject>
        <mxCell id="yy0lKUnVWEXfeKX_XiuZ-1" value="&lt;div align=&quot;left&quot;&gt;&lt;font style=&quot;font-size: 14px;&quot;&gt;Ignite, Spread, BurnComplete&lt;/font&gt;&lt;/div&gt;" style="text;html=1;align=left;verticalAlign=middle;resizable=0;points=[];autosize=1;strokeColor=none;fillColor=none;" vertex="1" parent="1">
          <mxGeometry x="190" y="173" width="210" height="30" as="geometry" />
        </mxCell>
        <mxCell id="yy0lKUnVWEXfeKX_XiuZ-2" value="" style="shape=partialRectangle;whiteSpace=wrap;html=1;bottom=1;right=1;left=1;top=0;fillColor=none;routingCenterX=-0.5;rotation=90;" vertex="1" parent="1">
          <mxGeometry x="180" y="170" width="30" height="30" as="geometry" />
        </mxCell>
        <mxCell id="yy0lKUnVWEXfeKX_XiuZ-3" value="" style="shape=partialRectangle;whiteSpace=wrap;html=1;bottom=1;right=1;left=1;top=0;fillColor=none;routingCenterX=-0.5;rotation=-90;" vertex="1" parent="1">
          <mxGeometry x="360" y="170" width="30" height="30" as="geometry" />
        </mxCell>
      </root>
    </mxGraphModel>
  </diagram>
  <diagram id="Yt7aFiD_amoL_BSVQY3l" name="Page-2">
    <mxGraphModel dx="1595" dy="941" grid="1" gridSize="10" guides="1" tooltips="1" connect="1" arrows="1" fold="1" page="1" pageScale="1" pageWidth="1169" pageHeight="827" math="0" shadow="0">
      <root>
        <mxCell id="0" />
        <mxCell id="1" parent="0" />
        <mxCell id="lMA9UySbT-EdPbyo4uqe-6" value="Unburned" style="ellipse;whiteSpace=wrap;html=1;aspect=fixed;" vertex="1" parent="1">
          <mxGeometry x="120" y="320" width="120" height="120" as="geometry" />
        </mxCell>
        <mxCell id="lMA9UySbT-EdPbyo4uqe-7" value="Burning" style="ellipse;whiteSpace=wrap;html=1;aspect=fixed;" vertex="1" parent="1">
          <mxGeometry x="525" y="320" width="120" height="120" as="geometry" />
        </mxCell>
        <mxCell id="lMA9UySbT-EdPbyo4uqe-8" value="Burned" style="ellipse;whiteSpace=wrap;html=1;aspect=fixed;" vertex="1" parent="1">
          <mxGeometry x="930" y="320" width="120" height="120" as="geometry" />
        </mxCell>
        <mxCell id="lMA9UySbT-EdPbyo4uqe-9" value="" style="endArrow=classic;html=1;rounded=0;entryX=0;entryY=0.5;entryDx=0;entryDy=0;" edge="1" parent="1" target="lMA9UySbT-EdPbyo4uqe-7">
          <mxGeometry width="50" height="50" relative="1" as="geometry">
            <mxPoint x="240" y="380" as="sourcePoint" />
            <mxPoint x="520" y="380" as="targetPoint" />
          </mxGeometry>
        </mxCell>
        <mxCell id="lMA9UySbT-EdPbyo4uqe-10" value="" style="endArrow=classic;html=1;rounded=0;entryX=0;entryY=0.5;entryDx=0;entryDy=0;" edge="1" parent="1" target="lMA9UySbT-EdPbyo4uqe-8">
          <mxGeometry width="50" height="50" relative="1" as="geometry">
            <mxPoint x="645" y="379.5" as="sourcePoint" />
            <mxPoint x="930" y="379.5" as="targetPoint" />
          </mxGeometry>
        </mxCell>
        <mxCell id="Pe8JK6Lu9YLXlmvvqQTZ-1" value="&lt;div&gt;&lt;font style=&quot;font-size: 25px;&quot;&gt;Cell States Diagram&lt;/font&gt;&lt;/div&gt;" style="text;html=1;align=center;verticalAlign=middle;resizable=0;points=[];autosize=1;strokeColor=none;fillColor=none;" vertex="1" parent="1">
          <mxGeometry x="485" y="105" width="240" height="40" as="geometry" />
        </mxCell>
        <mxCell id="Pe8JK6Lu9YLXlmvvqQTZ-3" value="" style="shape=mxgraph.arrows2.wedgeArrow;html=1;bendable=0;startWidth=5.454545454545453;fillColor=strokeColor;defaultFillColor=invert;defaultGradientColor=invert;rounded=0;entryX=0.745;entryY=0.061;entryDx=0;entryDy=0;entryPerimeter=0;exitX=0.825;exitY=0.118;exitDx=0;exitDy=0;exitPerimeter=0;" edge="1" parent="1" source="lMA9UySbT-EdPbyo4uqe-6" target="lMA9UySbT-EdPbyo4uqe-6">
          <mxGeometry width="100" height="100" relative="1" as="geometry">
            <mxPoint x="230" y="360" as="sourcePoint" />
            <mxPoint x="230" y="340" as="targetPoint" />
          </mxGeometry>
        </mxCell>
        <mxCell id="Pe8JK6Lu9YLXlmvvqQTZ-4" value="" style="shape=mxgraph.arrows2.wedgeArrow;html=1;bendable=0;startWidth=5.454545454545453;fillColor=strokeColor;defaultFillColor=invert;defaultGradientColor=invert;rounded=0;entryX=0.181;entryY=0.883;entryDx=0;entryDy=0;entryPerimeter=0;exitX=0.113;exitY=0.815;exitDx=0;exitDy=0;exitPerimeter=0;" edge="1" parent="1" source="lMA9UySbT-EdPbyo4uqe-6" target="lMA9UySbT-EdPbyo4uqe-6">
          <mxGeometry width="100" height="100" relative="1" as="geometry">
            <mxPoint x="150" y="437" as="sourcePoint" />
            <mxPoint x="140" y="430" as="targetPoint" />
          </mxGeometry>
        </mxCell>
        <mxCell id="Pe8JK6Lu9YLXlmvvqQTZ-5" value="Ignite, Spread" style="text;html=1;align=center;verticalAlign=middle;resizable=0;points=[];autosize=1;strokeColor=none;fillColor=none;" vertex="1" parent="1">
          <mxGeometry x="130" y="290" width="100" height="30" as="geometry" />
        </mxCell>
        <mxCell id="Pe8JK6Lu9YLXlmvvqQTZ-6" value="Ignite, Spread" style="text;html=1;align=center;verticalAlign=middle;resizable=0;points=[];autosize=1;strokeColor=none;fillColor=none;" vertex="1" parent="1">
          <mxGeometry x="320" y="348" width="100" height="30" as="geometry" />
        </mxCell>
        <mxCell id="Pe8JK6Lu9YLXlmvvqQTZ-7" value="BurnComplete" style="text;html=1;align=center;verticalAlign=middle;resizable=0;points=[];autosize=1;strokeColor=none;fillColor=none;" vertex="1" parent="1">
          <mxGeometry x="740" y="348" width="100" height="30" as="geometry" />
        </mxCell>
        <mxCell id="Pe8JK6Lu9YLXlmvvqQTZ-8" value="" style="shape=mxgraph.arrows2.wedgeArrow;html=1;bendable=0;startWidth=5.454545454545453;fillColor=strokeColor;defaultFillColor=invert;defaultGradientColor=invert;rounded=0;entryX=0.768;entryY=0.084;entryDx=0;entryDy=0;entryPerimeter=0;exitX=1;exitY=0;exitDx=0;exitDy=0;" edge="1" parent="1" source="lMA9UySbT-EdPbyo4uqe-7" target="lMA9UySbT-EdPbyo4uqe-7">
          <mxGeometry width="100" height="100" relative="1" as="geometry">
            <mxPoint x="630" y="337" as="sourcePoint" />
            <mxPoint x="620" y="330" as="targetPoint" />
          </mxGeometry>
        </mxCell>
        <mxCell id="Pe8JK6Lu9YLXlmvvqQTZ-9" value="" style="shape=mxgraph.arrows2.wedgeArrow;html=1;bendable=0;startWidth=5.454545454545453;fillColor=strokeColor;defaultFillColor=invert;defaultGradientColor=invert;rounded=0;entryX=0.23;entryY=0.929;entryDx=0;entryDy=0;entryPerimeter=0;exitX=0;exitY=1;exitDx=0;exitDy=0;" edge="1" parent="1" source="lMA9UySbT-EdPbyo4uqe-7" target="lMA9UySbT-EdPbyo4uqe-7">
          <mxGeometry width="100" height="100" relative="1" as="geometry">
            <mxPoint x="637" y="348" as="sourcePoint" />
            <mxPoint x="627" y="340" as="targetPoint" />
          </mxGeometry>
        </mxCell>
        <mxCell id="Pe8JK6Lu9YLXlmvvqQTZ-10" value="Reduce Vegetation (interior signal)" style="text;html=1;align=center;verticalAlign=middle;resizable=0;points=[];autosize=1;strokeColor=none;fillColor=none;" vertex="1" parent="1">
          <mxGeometry x="480" y="290" width="210" height="30" as="geometry" />
        </mxCell>
      </root>
    </mxGraphModel>
  </diagram>
  <diagram id="pJbbpR7VHuikT36ebEJQ" name="Page-3">
    <mxGraphModel dx="1356" dy="800" grid="1" gridSize="10" guides="1" tooltips="1" connect="1" arrows="1" fold="1" page="1" pageScale="1" pageWidth="1169" pageHeight="827" math="0" shadow="0">
      <root>
        <mxCell id="0" />
        <mxCell id="1" parent="0" />
        <mxCell id="kBO3iZV9psS1yz0H93Ga-1" value="&lt;div align=&quot;left&quot;&gt;DCL&lt;/div&gt;&lt;div align=&quot;left&quot;&gt;&lt;br&gt;&lt;/div&gt;&lt;div align=&quot;left&quot;&gt;int vegetation = x;&lt;/div&gt;&lt;div align=&quot;left&quot;&gt;int humidity = y;&lt;/div&gt;" style="shape=note;whiteSpace=wrap;html=1;backgroundOutline=1;darkOpacity=0.05;align=left;verticalAlign=top;" vertex="1" parent="1">
          <mxGeometry x="20" y="40" width="280" height="80" as="geometry" />
        </mxCell>
        <mxCell id="kBO3iZV9psS1yz0H93Ga-5" value="" style="strokeWidth=2;html=1;shape=mxgraph.flowchart.terminator;whiteSpace=wrap;" vertex="1" parent="1">
          <mxGeometry x="90" y="190" width="100" height="60" as="geometry" />
        </mxCell>
        <mxCell id="kBO3iZV9psS1yz0H93Ga-7" value="" style="line;strokeWidth=2;direction=south;html=1;" vertex="1" parent="1">
          <mxGeometry x="135" y="250" width="10" height="70" as="geometry" />
        </mxCell>
        <UserObject label="Unburned" tags="Fons" id="kBO3iZV9psS1yz0H93Ga-14">
          <mxCell style="verticalAlign=middle;align=center;overflow=width;vsdxID=13;fillColor=#FFFFFF;gradientColor=none;shape=stencil(tVLRDoIwDPyaPc6MTYk+I/7HIgMWJyPdFPh7txQiKPpg4luvd21zbYnIXC1bRThzHuxFdbrwNRFHwrluagXah4iInIistKAqsLemQNzKqIzR1d5jhx7rEhZLOBsmiPiEWqObmfbwVSvhHDgYtSnb7FKUwzCVb/ZbTK03HFFPZa8dBeul17ZZcEZCpWgYRUsjqwXlOqXat/SqkWRt7u82PuzwL0ZC8DxlqY3BT5jzr6cPKXwbkT8A);strokeColor=#000000;spacingTop=-1;spacingBottom=-1;spacingLeft=-1;spacingRight=-1;points=[[0.5,0,0],[0.5,1,0],[0,0.5,0],[1,0.5,0],[0.1,1,0],[0.2,1,0],[0.3,1,0],[0.4,1,0],[0.6,1,0],[0.7,1,0],[0.8,1,0],[0.9,1,0],[0.1,0,0],[0.2,0,0],[0.3,0,0],[0.4,0,0],[0.6,0,0],[0.7,0,0],[0.8,0,0],[0.9,0,0],[0.06,0.9,0],[0.94,0.9,0],[0.03,0.8,0],[0.97,0.8,0],[0.01,0.7,0],[0.99,0.7,0],[0.01,0.6,0],[1,0.6,0],[0.01,0.4,0],[1,0.4,0],[0.01,0.3,0],[0.99,0.3,0],[0.03,0.2,0],[0.97,0.2,0],[0.06,0.1,0],[0.94,0.1,0]];labelBackgroundColor=none;rounded=0;html=1;whiteSpace=wrap;strokeWidth=2;" vertex="1" parent="1">
            <mxGeometry x="80" y="320" width="120" height="60" as="geometry" />
          </mxCell>
        </UserObject>
      </root>
    </mxGraphModel>
  </diagram>
</mxfile>
